HIERARCHY
ROOT mixamorig:Hips
{
	OFFSET 0.000000 85.230415 0.000000
	CHANNELS 6 Xposition Yposition Zposition Zrotation Yrotation Xrotation 
	JOINT mixamorig:Spine
	{
		OFFSET -0.000014 7.868595 1.166200
		CHANNELS 3 Zrotation Yrotation Xrotation
		JOINT mixamorig:Spine1
		{
			OFFSET 0.000000 8.307600 0.241180
			CHANNELS 3 Zrotation Yrotation Xrotation
			JOINT mixamorig:Spine2
			{
				OFFSET 0.000000 7.469998 -0.455969
				CHANNELS 3 Zrotation Yrotation Xrotation
				JOINT mixamorig:Neck
				{
					OFFSET 0.000000 21.623920 -3.130763
					CHANNELS 3 Zrotation Yrotation Xrotation
					JOINT mixamorig:Head
					{
						OFFSET 0.000000 8.979096 1.007916
						CHANNELS 3 Zrotation Yrotation Xrotation
						JOINT mixamorig:HeadTop_End
						{
							OFFSET 0.000000 36.978806 0.701265
							CHANNELS 3 Zrotation Yrotation Xrotation
							End Site
							{
								OFFSET 0.000000 0.000000 0.000000
							}
						}
						JOINT mixamorig:HairB
						{
							OFFSET -6.414200 28.771164 21.708258
							CHANNELS 3 Zrotation Yrotation Xrotation
							End Site
							{
								OFFSET 0.000000 0.000000 0.000000
							}
						}
						JOINT mixamorig:HairA
						{
							OFFSET -11.484100 27.496475 17.498951
							CHANNELS 3 Zrotation Yrotation Xrotation
							End Site
							{
								OFFSET 0.000000 0.000000 0.000000
							}
						}
						JOINT mixamorig:Bow_Left
						{
							OFFSET -6.807600 33.586777 20.752766
							CHANNELS 3 Zrotation Yrotation Xrotation
							End Site
							{
								OFFSET 0.000000 0.000000 0.000000
							}
						}
						JOINT mixamorig:Bow_Right
						{
							OFFSET -11.133100 30.313980 19.500957
							CHANNELS 3 Zrotation Yrotation Xrotation
							End Site
							{
								OFFSET 0.000000 0.000000 0.000000
							}
						}
						JOINT mixamorig:HairC
						{
							OFFSET 2.525900 31.959274 20.608562
							CHANNELS 3 Zrotation Yrotation Xrotation
							JOINT mixamorig:HairC1
							{
								OFFSET 1.733735 -3.232010 3.632423
								CHANNELS 3 Zrotation Yrotation Xrotation
								End Site
								{
									OFFSET 0.000000 0.000000 0.000000
								}
							}
						}
						JOINT mixamorig:Ponytail
						{
							OFFSET -0.181100 31.348724 -13.427048
							CHANNELS 3 Zrotation Yrotation Xrotation
							JOINT mixamorig:Ponytail1
							{
								OFFSET -0.746532 2.567368 -7.327436
								CHANNELS 3 Zrotation Yrotation Xrotation
								JOINT mixamorig:Ponytail2
								{
									OFFSET -0.357839 -10.803711 -7.221615
									CHANNELS 3 Zrotation Yrotation Xrotation
									End Site
									{
										OFFSET 0.000000 0.000000 0.000000
									}
								}
							}
						}
					}
				}
				JOINT mixamorig:LeftShoulder
				{
					OFFSET 4.215800 16.566912 -4.092373
					CHANNELS 3 Zrotation Yrotation Xrotation
					JOINT mixamorig:LeftArm
					{
						OFFSET 8.521194 -0.267406 -1.717659
						CHANNELS 3 Zrotation Yrotation Xrotation
						JOINT mixamorig:LeftForeArm
						{
							OFFSET 21.262897 0.000002 -0.000001
							CHANNELS 3 Zrotation Yrotation Xrotation
							JOINT mixamorig:LeftHand
							{
								OFFSET 21.154701 -0.000003 -0.000001
								CHANNELS 3 Zrotation Yrotation Xrotation
								JOINT mixamorig:LeftHandThumb1
								{
									OFFSET 4.109039 -1.962593 2.610258
									CHANNELS 3 Zrotation Yrotation Xrotation
									JOINT mixamorig:LeftHandThumb2
									{
										OFFSET 3.101486 -1.790642 1.790644
										CHANNELS 3 Zrotation Yrotation Xrotation
										JOINT mixamorig:LeftHandThumb3
										{
											OFFSET 3.038742 -1.754417 1.754420
											CHANNELS 3 Zrotation Yrotation Xrotation
											JOINT mixamorig:LeftHandThumb4
											{
												OFFSET 2.539978 -1.466461 1.466458
												CHANNELS 3 Zrotation Yrotation Xrotation
												End Site
												{
													OFFSET 0.000000 0.000000 0.000000
												}
											}
										}
									}
								}
								JOINT mixamorig:LeftHandIndex1
								{
									OFFSET 11.845871 -0.683540 3.729384
									CHANNELS 3 Zrotation Yrotation Xrotation
									JOINT mixamorig:LeftHandIndex2
									{
										OFFSET 3.283096 0.000000 -0.000000
										CHANNELS 3 Zrotation Yrotation Xrotation
										JOINT mixamorig:LeftHandIndex3
										{
											OFFSET 3.323807 0.000000 -0.000000
											CHANNELS 3 Zrotation Yrotation Xrotation
											JOINT mixamorig:LeftHandIndex4
											{
												OFFSET 3.020599 0.000000 -0.000000
												CHANNELS 3 Zrotation Yrotation Xrotation
												End Site
												{
													OFFSET 0.000000 0.000000 0.000000
												}
											}
										}
									}
								}
								JOINT mixamorig:LeftHandMiddle1
								{
									OFFSET 12.082413 0.000000 -0.000000
									CHANNELS 3 Zrotation Yrotation Xrotation
									JOINT mixamorig:LeftHandMiddle2
									{
										OFFSET 3.410500 0.000000 0.000000
										CHANNELS 3 Zrotation Yrotation Xrotation
										JOINT mixamorig:LeftHandMiddle3
										{
											OFFSET 3.312202 0.000000 0.000000
											CHANNELS 3 Zrotation Yrotation Xrotation
											JOINT mixamorig:LeftHandMiddle4
											{
												OFFSET 3.438499 0.000000 0.000000
												CHANNELS 3 Zrotation Yrotation Xrotation
												End Site
												{
													OFFSET 0.000000 0.000000 0.000000
												}
											}
										}
									}
								}
								JOINT mixamorig:LeftHandRing1
								{
									OFFSET 12.470573 0.087585 -2.973213
									CHANNELS 3 Zrotation Yrotation Xrotation
									JOINT mixamorig:LeftHandRing2
									{
										OFFSET 3.053307 0.000000 0.000000
										CHANNELS 3 Zrotation Yrotation Xrotation
										JOINT mixamorig:LeftHandRing3
										{
											OFFSET 3.295898 0.000000 0.000000
											CHANNELS 3 Zrotation Yrotation Xrotation
											JOINT mixamorig:LeftHandRing4
											{
												OFFSET 3.727997 0.000000 0.000000
												CHANNELS 3 Zrotation Yrotation Xrotation
												End Site
												{
													OFFSET 0.000000 0.000000 0.000000
												}
											}
										}
									}
								}
								JOINT mixamorig:LeftHandPinky1
								{
									OFFSET 11.691048 -0.779549 -5.760270
									CHANNELS 3 Zrotation Yrotation Xrotation
									JOINT mixamorig:LeftHandPinky2
									{
										OFFSET 2.861702 0.000000 0.000000
										CHANNELS 3 Zrotation Yrotation Xrotation
										JOINT mixamorig:LeftHandPinky3
										{
											OFFSET 2.863403 0.000000 0.000000
											CHANNELS 3 Zrotation Yrotation Xrotation
											JOINT mixamorig:LeftHandPinky4
											{
												OFFSET 2.545403 0.000000 0.000000
												CHANNELS 3 Zrotation Yrotation Xrotation
												End Site
												{
													OFFSET 0.000000 0.000000 0.000000
												}
											}
										}
									}
								}
							}
							JOINT mixamorig:LeftWristTwist
							{
								OFFSET 10.565701 0.000000 -0.000000
								CHANNELS 3 Zrotation Yrotation Xrotation
								End Site
								{
									OFFSET 0.000000 0.000000 0.000000
								}
							}
						}
						JOINT mixamorig:LeftUpArmTwist
						{
							OFFSET 10.646198 0.000000 -0.000000
							CHANNELS 3 Zrotation Yrotation Xrotation
							End Site
							{
								OFFSET 0.000000 0.000000 0.000000
							}
						}
					}
				}
				JOINT mixamorig:Right_Breast
				{
					OFFSET -2.562200 12.208893 5.100423
					CHANNELS 3 Zrotation Yrotation Xrotation
					End Site
					{
						OFFSET 0.000000 0.000000 0.000000
					}
				}
				JOINT mixamorig:Left_Breast
				{
					OFFSET 2.562200 12.208893 5.100423
					CHANNELS 3 Zrotation Yrotation Xrotation
					End Site
					{
						OFFSET 0.000000 0.000000 0.000000
					}
				}
				JOINT mixamorig:RightShoulder
				{
					OFFSET -4.215800 16.567416 -4.092373
					CHANNELS 3 Zrotation Yrotation Xrotation
					JOINT mixamorig:RightArm
					{
						OFFSET -8.521288 -0.267902 -1.717664
						CHANNELS 3 Zrotation Yrotation Xrotation
						JOINT mixamorig:RightForeArm
						{
							OFFSET -21.262793 -0.000002 0.000001
							CHANNELS 3 Zrotation Yrotation Xrotation
							JOINT mixamorig:RightHand
							{
								OFFSET -21.154800 0.000000 -0.000001
								CHANNELS 3 Zrotation Yrotation Xrotation
								JOINT mixamorig:RightHandThumb1
								{
									OFFSET -4.108955 -1.962654 2.610195
									CHANNELS 3 Zrotation Yrotation Xrotation
									JOINT mixamorig:RightHandThumb2
									{
										OFFSET -3.101406 -1.790596 1.790599
										CHANNELS 3 Zrotation Yrotation Xrotation
										JOINT mixamorig:RightHandThumb3
										{
											OFFSET -3.038822 -1.754463 1.754464
											CHANNELS 3 Zrotation Yrotation Xrotation
											JOINT mixamorig:RightHandThumb4
											{
												OFFSET -2.539749 -1.466324 1.466325
												CHANNELS 3 Zrotation Yrotation Xrotation
												End Site
												{
													OFFSET 0.000000 0.000000 0.000000
												}
											}
										}
									}
								}
								JOINT mixamorig:RightHandIndex1
								{
									OFFSET -11.845840 -0.684052 3.729363
									CHANNELS 3 Zrotation Yrotation Xrotation
									JOINT mixamorig:RightHandIndex2
									{
										OFFSET -3.283096 0.000000 -0.000000
										CHANNELS 3 Zrotation Yrotation Xrotation
										JOINT mixamorig:RightHandIndex3
										{
											OFFSET -3.323807 0.000000 -0.000000
											CHANNELS 3 Zrotation Yrotation Xrotation
											JOINT mixamorig:RightHandIndex4
											{
												OFFSET -3.020599 0.000000 0.000000
												CHANNELS 3 Zrotation Yrotation Xrotation
												End Site
												{
													OFFSET 0.000000 0.000000 0.000000
												}
											}
										}
									}
								}
								JOINT mixamorig:RightHandMiddle1
								{
									OFFSET -12.082314 0.000000 0.000000
									CHANNELS 3 Zrotation Yrotation Xrotation
									JOINT mixamorig:RightHandMiddle2
									{
										OFFSET -3.410606 0.000000 0.000000
										CHANNELS 3 Zrotation Yrotation Xrotation
										JOINT mixamorig:RightHandMiddle3
										{
											OFFSET -3.312195 0.000000 0.000000
											CHANNELS 3 Zrotation Yrotation Xrotation
											JOINT mixamorig:RightHandMiddle4
											{
												OFFSET -3.438499 0.000000 0.000000
												CHANNELS 3 Zrotation Yrotation Xrotation
												End Site
												{
													OFFSET 0.000000 0.000000 0.000000
												}
											}
										}
									}
								}
								JOINT mixamorig:RightHandRing1
								{
									OFFSET -12.470573 0.087166 -2.973210
									CHANNELS 3 Zrotation Yrotation Xrotation
									JOINT mixamorig:RightHandRing2
									{
										OFFSET -3.053299 0.000000 0.000000
										CHANNELS 3 Zrotation Yrotation Xrotation
										JOINT mixamorig:RightHandRing3
										{
											OFFSET -3.295898 0.000000 0.000000
											CHANNELS 3 Zrotation Yrotation Xrotation
											JOINT mixamorig:RightHandRing4
											{
												OFFSET -3.727997 0.000000 0.000000
												CHANNELS 3 Zrotation Yrotation Xrotation
												End Site
												{
													OFFSET 0.000000 0.000000 0.000000
												}
											}
										}
									}
								}
								JOINT mixamorig:RightHandPinky1
								{
									OFFSET -11.691017 -0.779953 -5.760294
									CHANNELS 3 Zrotation Yrotation Xrotation
									JOINT mixamorig:RightHandPinky2
									{
										OFFSET -2.861603 0.000000 0.000000
										CHANNELS 3 Zrotation Yrotation Xrotation
										JOINT mixamorig:RightHandPinky3
										{
											OFFSET -2.863403 0.000000 0.000000
											CHANNELS 3 Zrotation Yrotation Xrotation
											JOINT mixamorig:RightHandPinky4
											{
												OFFSET -2.545303 0.000000 0.000000
												CHANNELS 3 Zrotation Yrotation Xrotation
												End Site
												{
													OFFSET 0.000000 0.000000 0.000000
												}
											}
										}
									}
								}
							}
							JOINT mixamorig:RightWristTwist
							{
								OFFSET -10.565701 0.000000 0.000000
								CHANNELS 3 Zrotation Yrotation Xrotation
								End Site
								{
									OFFSET 0.000000 0.000000 0.000000
								}
							}
						}
						JOINT mixamorig:RightUpArmTwist
						{
							OFFSET -10.646093 0.000000 0.000001
							CHANNELS 3 Zrotation Yrotation Xrotation
							End Site
							{
								OFFSET 0.000000 0.000000 0.000000
							}
						}
					}
				}
			}
		}
		JOINT mixamorig:Belly
		{
			OFFSET 0.000000 -0.538567 3.357786
			CHANNELS 3 Zrotation Yrotation Xrotation
			End Site
			{
				OFFSET 0.000000 0.000000 0.000000
			}
		}
	}
	JOINT mixamorig:LeftUpLeg
	{
		OFFSET 8.267015 -7.995487 -0.379100
		CHANNELS 3 Zrotation Yrotation Xrotation
		JOINT mixamorig:LeftLeg
		{
			OFFSET -0.000034 -32.369440 0.062314
			CHANNELS 3 Zrotation Yrotation Xrotation
			JOINT mixamorig:LeftFoot
			{
				OFFSET 0.000024 -35.030462 -2.208349
				CHANNELS 3 Zrotation Yrotation Xrotation
				JOINT mixamorig:LeftToeBase
				{
					OFFSET 1.232905 -9.835773 10.854839
					CHANNELS 3 Zrotation Yrotation Xrotation
					JOINT mixamorig:LeftToe_End
					{
						OFFSET 0.210410 0.001970 7.008142
						CHANNELS 3 Zrotation Yrotation Xrotation
						End Site
						{
							OFFSET 0.000000 0.000000 0.000000
						}
					}
				}
			}
		}
	}
	JOINT mixamorig:RightUpLeg
	{
		OFFSET -8.266986 -7.995517 -0.379100
		CHANNELS 3 Zrotation Yrotation Xrotation
		JOINT mixamorig:RightLeg
		{
			OFFSET 0.000002 -32.369437 0.062314
			CHANNELS 3 Zrotation Yrotation Xrotation
			JOINT mixamorig:RightFoot
			{
				OFFSET 0.000001 -35.030467 -2.208349
				CHANNELS 3 Zrotation Yrotation Xrotation
				JOINT mixamorig:RightToeBase
				{
					OFFSET -1.232895 -9.835700 10.854908
					CHANNELS 3 Zrotation Yrotation Xrotation
					JOINT mixamorig:RightToe_End
					{
						OFFSET -0.214257 0.001952 7.007725
						CHANNELS 3 Zrotation Yrotation Xrotation
						End Site
						{
							OFFSET 0.000000 0.000000 0.000000
						}
					}
				}
			}
		}
	}
	JOINT mixamorig:SkirtA
	{
		OFFSET 11.243096 1.931320 -10.868500
		CHANNELS 3 Zrotation Yrotation Xrotation
		JOINT mixamorig:SkirtA1
		{
			OFFSET 2.094878 -7.760521 -3.754759
			CHANNELS 3 Zrotation Yrotation Xrotation
			End Site
			{
				OFFSET 0.000000 0.000000 0.000000
			}
		}
	}
	JOINT mixamorig:SkirtB
	{
		OFFSET -0.000008 4.335800 -15.692000
		CHANNELS 3 Zrotation Yrotation Xrotation
		JOINT mixamorig:SkirtB1
		{
			OFFSET 0.000000 -9.729668 -3.399943
			CHANNELS 3 Zrotation Yrotation Xrotation
			End Site
			{
				OFFSET 0.000000 0.000000 0.000000
			}
		}
	}
	JOINT mixamorig:SkirtC
	{
		OFFSET -11.243104 1.931381 -10.868500
		CHANNELS 3 Zrotation Yrotation Xrotation
		JOINT mixamorig:SkirtC1
		{
			OFFSET -1.996108 -7.801628 -3.723248
			CHANNELS 3 Zrotation Yrotation Xrotation
			End Site
			{
				OFFSET 0.000000 0.000000 0.000000
			}
		}
	}
}
MOTION
Frames: 4
Frame Time: 0.016667
-0.018326 90.896957 0.152589 178.740203 -10.119294 -8.565920 -12.097642 1.268835 11.080318 -2.474558 1.088777 -0.962718 -2.466350 1.385825 -1.035744 -3.094530 0.515864 -10.517410 3.184216 -2.292204 -0.723568 -0.000001 -0.000000 -0.000001 0.000000 0.000001 0.000003 -0.000006 0.000003 -0.000001 0.000005 -0.000004 -0.000005 -0.000005 0.000002 0.000003 -0.000001 -0.000000 -0.000002 -0.000000 -0.000002 0.000005 -0.000002 -0.000001 -0.000001 -0.000001 -0.000000 -0.000004 0.000000 0.000000 -0.000001 9.299643 1.818481 1.105080 72.127530 -58.929785 -119.113183 -6.074836 -69.146089 2.990387 -12.596188 -6.721646 50.904173 5.903453 8.588066 -32.591792 3.921614 21.088916 13.166245 22.698460 0.309420 2.440121 -0.000001 0.000001 0.000001 -13.613230 3.688840 -0.657823 -14.466928 1.466486 -0.186140 -14.466920 1.466497 -0.186142 0.000000 0.000001 0.000000 -19.165850 4.174122 -1.038828 -20.003845 2.007715 -0.354123 -21.996107 2.198049 -0.427223 -0.000002 -0.000001 0.000001 -27.532789 4.829300 -1.696726 -25.350966 2.512338 -0.565136 -27.344666 2.695042 -0.655697 0.000001 -0.000000 0.000001 -30.649781 5.047622 -1.965122 -27.457410 2.705272 -0.661028 -27.457413 2.705275 -0.661020 0.000000 0.000000 0.000002 0.000001 0.000000 -0.000002 0.000001 0.000002 -0.000002 0.000002 0.000000 0.000000 0.000002 0.000000 0.000000 -42.475303 -12.713418 17.884222 -19.546562 34.220822 -117.885280 6.761356 25.402616 2.769159 -61.829792 49.351775 48.830971 23.545649 7.507499 -76.534070 -3.840414 -2.405940 3.152683 -14.788955 0.791859 -9.389097 0.000000 -0.000003 -0.000001 -9.437056 7.360040 3.090775 4.968194 -0.404203 -0.017535 -9.983027 0.809074 -0.070667 0.000000 -0.000006 0.000000 -12.368109 0.608117 0.429955 8.514097 -0.690996 -0.051437 -6.441823 0.523651 -0.029471 0.000000 -0.000004 0.000000 -11.983927 -1.256576 0.419091 5.032014 -0.409388 -0.017989 -9.919216 0.803954 -0.069765 0.000000 -0.000003 0.000000 -10.407852 -8.421506 -14.608271 4.509202 -0.366957 -0.014450 -10.442094 0.845874 -0.077294 0.000000 0.000000 0.000000 0.000000 0.000000 0.000000 -0.000001 0.000003 -0.000000 -0.000001 0.000000 0.000000 -17.263549 15.119957 -96.464977 3.011000 -4.410334 131.574025 -14.444418 -4.229266 -0.450592 0.000017 -0.000008 -0.850391 0.000000 0.000002 0.000001 1.538372 -3.370475 12.559206 -8.774317 -3.636766 48.617580 1.100414 5.671544 40.575138 0.000002 0.000001 6.268346 0.000000 0.000000 0.000000 0.000000 0.000000 -0.000003 -0.000001 -0.000001 -0.000002 0.000000 0.000000 0.000002 0.000000 0.000000 0.000000 0.000001 -0.000001 -0.000002 0.000000 0.000000 0.000000 
0.847244 90.787437 0.926263 177.630765 1.832251 -8.179960 -12.128566 -0.208603 11.369818 -2.477134 0.684347 -1.026845 -2.426291 1.119335 -1.113141 -2.466294 0.565539 -10.433541 3.499532 -1.398881 -0.370049 -0.000001 0.000000 0.000000 0.000000 0.000001 0.000007 -0.000004 0.000004 0.000001 0.000003 -0.000003 -0.000003 -0.000006 0.000001 -0.000000 -0.000004 0.000000 0.000001 0.000001 -0.000001 0.000007 -0.000003 0.000001 0.000001 -0.000001 0.000001 0.000002 0.000002 0.000001 0.000008 11.797872 2.864328 1.370892 67.900324 -57.629987 -117.106351 -6.299852 -70.206928 3.290048 -12.121726 -7.543520 54.736615 5.903453 8.588064 -32.591789 3.921618 21.088909 13.166248 22.698466 0.309424 2.440125 -0.000002 0.000003 0.000004 -13.613234 3.688833 -0.657821 -14.466926 1.466486 -0.186139 -14.466923 1.466499 -0.186140 -0.000002 0.000001 -0.000001 -19.165852 4.174121 -1.038827 -20.003845 2.007713 -0.354122 -21.996109 2.198049 -0.427220 -0.000004 -0.000001 0.000001 -27.532791 4.829294 -1.696722 -25.350971 2.512338 -0.565134 -27.344672 2.695042 -0.655698 0.000000 0.000000 0.000000 -30.649785 5.047615 -1.965118 -27.457412 2.705275 -0.661025 -27.457417 2.705273 -0.661024 -0.000001 0.000000 0.000002 0.000000 0.000000 0.000001 -0.000002 0.000001 0.000001 0.000000 0.000001 0.000000 0.000000 0.000001 0.000000 -42.135366 -12.913973 17.506968 -14.697096 34.565406 -115.402158 7.035892 28.768490 3.257344 -56.454591 50.476144 52.857330 23.527920 7.580487 -77.188514 -3.722890 -2.493858 3.063268 -14.902337 0.831506 -9.506311 0.000004 0.000002 0.000003 -9.207435 7.584546 3.074696 4.695533 -0.382068 -0.015668 -9.900295 0.802439 -0.069507 0.000000 0.000000 0.000000 -12.166344 0.820686 0.426317 8.246423 -0.669426 -0.048261 -6.361596 0.517154 -0.028741 0.000000 0.000002 0.000000 -11.790008 -1.064220 0.414850 4.776775 -0.388681 -0.016208 -9.856470 0.798928 -0.068897 0.000000 0.000002 0.000000 -10.255922 -8.273694 -14.598524 4.374718 -0.356030 -0.013601 -10.403147 0.842762 -0.076724 -0.000000 -0.000001 0.000001 0.000002 0.000002 -0.000001 0.000003 -0.000002 -0.000003 0.000000 0.000000 0.000000 -19.025230 16.809919 -96.276587 2.220581 -3.670909 132.199752 -14.313392 -2.150267 -2.252943 -0.000024 0.000003 -0.345776 -0.000000 0.000005 -0.000002 2.072865 -4.375129 9.461909 -7.337634 -2.315418 50.290774 -3.670576 -0.633580 34.151214 -0.000003 -0.000004 14.254510 0.000001 -0.000001 -0.000001 -0.000001 -0.000001 -0.000003 0.000000 -0.000001 -0.000002 0.000000 0.000000 0.000000 -0.000000 -0.000001 0.000002 0.000002 -0.000001 0.000001 0.000000 0.000000 0.000000 
1.657960 90.588051 1.705057 176.520451 13.930148 -8.010917 -12.220917 -1.724058 11.709178 -2.478924 0.281896 -1.080453 -2.428572 0.734840 -1.159938 -1.807100 0.633851 -10.308895 3.759871 -0.225734 0.227183 -0.000002 0.000000 0.000001 -0.000002 0.000002 0.000005 -0.000003 -0.000002 -0.000001 0.000000 -0.000004 -0.000003 -0.000002 0.000000 0.000005 -0.000002 0.000004 0.000001 0.000002 -0.000001 0.000001 -0.000002 0.000000 0.000001 0.000001 -0.000001 0.000001 -0.000002 0.000002 0.000003 14.586463 3.936355 1.645524 63.836337 -56.222487 -115.711119 -6.663126 -70.971660 3.622615 -12.251993 -8.831956 58.511459 5.903452 8.588059 -32.591790 3.921614 21.088916 13.166245 22.698459 0.309418 2.440121 -0.000006 0.000004 0.000002 -13.613232 3.688834 -0.657820 -14.466925 1.466488 -0.186138 -14.466926 1.466497 -0.186143 0.000000 0.000000 -0.000001 -19.165850 4.174125 -1.038829 -20.003848 2.007715 -0.354123 -21.996107 2.198051 -0.427223 -0.000002 -0.000001 -0.000003 -27.532793 4.829300 -1.696724 -25.350964 2.512339 -0.565137 -27.344675 2.695045 -0.655697 0.000000 0.000000 -0.000002 -30.649781 5.047622 -1.965121 -27.457410 2.705271 -0.661027 -27.457417 2.705276 -0.661023 0.000000 0.000001 0.000000 -0.000001 -0.000000 -0.000001 -0.000000 0.000002 -0.000001 0.000001 -0.000003 -0.000000 0.000001 -0.000003 -0.000000 -41.468018 -13.159553 16.698658 -10.199640 34.257250 -112.094820 7.458662 30.810183 3.725342 -51.230917 51.148814 56.838597 23.518060 7.636469 -77.631929 -3.644884 -2.551762 3.004036 -14.790553 0.854988 -9.535976 -0.000002 0.000003 -0.000001 -9.055444 7.733332 3.064897 4.515055 -0.367430 -0.014489 -9.845534 0.798042 -0.068732 0.000000 0.000003 0.000000 -12.033000 0.961224 0.423914 8.069728 -0.655177 -0.046218 -6.308478 0.512846 -0.028258 0.000000 -0.000001 0.000000 -11.661702 -0.937102 0.412046 4.608180 -0.374996 -0.015087 -9.814941 0.795580 -0.068314 0.000000 -0.000001 0.000000 -10.155228 -8.176048 -14.591830 4.285647 -0.348790 -0.013056 -10.377328 0.840680 -0.076337 0.000000 0.000002 0.000000 -0.000002 -0.000002 -0.000002 0.000001 -0.000000 0.000001 -0.000001 -0.000002 0.000000 -20.221039 18.779124 -96.771984 2.171937 -3.363784 132.152009 -14.360606 -0.217454 -0.900711 -0.000022 -0.000005 0.772374 0.000002 -0.000001 -0.000001 1.810265 -4.699719 10.203984 -7.492467 -2.936881 46.627326 -9.648575 -8.252919 29.834638 -0.000001 0.000008 22.977007 0.000001 0.000004 -0.000002 -0.000001 -0.000000 -0.000001 0.000001 -0.000001 0.000002 -0.000000 0.000001 -0.000002 0.000000 -0.000002 -0.000002 0.000001 0.000000 -0.000002 0.000003 0.000002 0.000002 
2.367878 90.374565 2.494364 175.326261 25.844148 -8.112737 -12.286104 -3.228983 11.923636 -2.464486 -0.115261 -1.158779 -2.443570 0.273415 -1.218530 -1.404955 0.756561 -10.125708 4.318098 1.028705 0.760052 0.000001 0.000000 0.000000 0.000001 0.000003 0.000003 -0.000001 -0.000001 0.000000 0.000004 -0.000004 -0.000003 -0.000003 0.000000 0.000003 -0.000001 -0.000003 0.000000 0.000000 0.000000 0.000000 0.000000 -0.000001 -0.000001 0.000000 -0.000003 -0.000001 0.000003 0.000001 0.000006 16.264225 4.724064 1.801631 60.899514 -55.119839 -114.530551 -7.089272 -71.524429 3.974921 -13.106886 -10.157983 61.657879 5.903449 8.588061 -32.591797 3.921615 21.088915 13.166244 22.698459 0.309422 2.440123 -0.000002 0.000005 0.000003 -13.613232 3.688836 -0.657820 -14.466926 1.466488 -0.186140 -14.466928 1.466495 -0.186144 0.000001 0.000002 0.000000 -19.165852 4.174121 -1.038827 -20.003845 2.007714 -0.354125 -21.996107 2.198051 -0.427222 0.000000 -0.000003 -0.000001 -27.532792 4.829298 -1.696721 -25.350966 2.512339 -0.565135 -27.344668 2.695047 -0.655698 0.000000 0.000002 0.000001 -30.649781 5.047620 -1.965119 -27.457408 2.705276 -0.661024 -27.457417 2.705277 -0.661022 -0.000000 0.000002 -0.000003 -0.000001 -0.000000 -0.000001 0.000001 0.000003 -0.000002 -0.000001 0.000000 0.000000 -0.000001 0.000000 0.000000 -40.784166 -13.089853 16.256363 -6.478325 33.533075 -110.131961 7.978270 32.359906 4.229436 -46.319737 51.620205 60.313894 23.536047 7.616006 -77.685786 -3.634677 -2.556076 2.998006 -14.705084 0.854924 -9.518235 -0.000002 0.000001 -0.000001 -9.041119 7.752863 3.071278 4.494530 -0.365745 -0.014347 -9.839305 0.797539 -0.068651 0.000000 -0.000003 0.000000 -12.019262 0.977081 0.423677 8.050064 -0.653610 -0.045993 -6.302458 0.512370 -0.028208 0.000000 0.000001 0.000000 -11.648389 -0.922714 0.411763 4.589163 -0.373441 -0.014965 -9.810214 0.795217 -0.068247 0.000000 0.000000 0.000000 -10.145969 -8.164305 -14.587392 4.275514 -0.347966 -0.012987 -10.374413 0.840446 -0.076298 0.000000 -0.000001 0.000000 0.000001 0.000002 0.000004 -0.000001 0.000004 0.000002 0.000001 -0.000002 0.000001 -20.460419 20.932230 -96.479250 1.594393 -2.151917 131.181553 -14.099048 -0.086441 1.027132 0.000000 0.000000 0.688636 0.000000 0.000000 -0.000001 1.515041 -5.027707 11.535306 -8.252138 -3.737785 43.422491 -12.595529 -15.420066 26.994701 -0.000001 -0.000014 29.574999 0.000002 0.000001 0.000001 -0.000001 -0.000001 -0.000003 0.000001 0.000003 0.000005 0.000001 -0.000002 -0.000003 0.000000 -0.000002 -0.000002 0.000000 -0.000002 0.000000 -0.000003 -0.000005 0.000000 
